<svg width="11" height="14" viewBox="0 0 11 14" fill="none" xmlns="http://www.w3.org/2000/svg">
<path id="Vector" d="M10.6289 1.31333L9.20666 4.21667C8.31777 3.48 7.16222 3.00333 6.00666 2.91667L6.94 1.01C6.98444 0.836667 7.11777 0.75 7.29555 0.75H10.3622C10.4511 0.75 10.54 0.793333 10.6289 0.836667C10.6733 0.923333 10.7178 1.01 10.7178 1.09667C10.7178 1.18333 10.6733 1.27 10.6289 1.31333ZM10.7178 8.89667C10.7178 11.5833 8.49555 13.75 5.74 13.75C2.98444 13.75 0.762218 11.5833 0.762218 8.89667C0.762218 6.21 2.98444 4.04333 5.74 4.04333C8.49555 4 10.7178 6.21 10.7178 8.89667ZM8.05111 7.55333L6.71777 7.33667L6.14 6.08C5.91777 5.64667 5.60666 5.64667 5.42888 6.08L4.85111 7.33667L3.51777 7.55333C3.07333 7.64 2.98444 7.94333 3.29555 8.29L4.27333 9.24333L4.05111 10.63C3.96222 11.1067 4.22888 11.28 4.62888 11.0633L5.82889 10.4133L7.02888 11.0633C7.42888 11.28 7.69555 11.0633 7.60666 10.63L7.38444 9.24333L8.40666 8.29C8.62888 7.94333 8.49555 7.59667 8.05111 7.55333ZM0.806662 1.31333C0.762218 1.27 0.717773 1.18333 0.717773 1.09667C0.717773 1.01 0.762218 0.923333 0.806662 0.836667C0.851107 0.75 0.98444 0.75 1.07333 0.75H4.14C4.31777 0.75 4.45111 0.88 4.49555 1.01L5.42888 2.91667C4.22888 3.00333 3.11777 3.48 2.22888 4.21667L0.806662 1.31333Z" fill="#FDD3D3"/>
</svg>
