<svg width="15" height="14" viewBox="0 0 15 14" fill="none" xmlns="http://www.w3.org/2000/svg">
<g id="Couronne" clip-path="url(#clip0_445_50)">
<g id="Group">
<path id="Vector" d="M10.7075 0.0174305C10.7075 0.048244 10.7655 0.136665 10.8213 0.191593C10.8486 0.221067 10.8989 0.284034 10.9317 0.332263C10.9646 0.381833 11.0138 0.455517 11.0411 0.495708C11.0696 0.5359 11.1461 0.663172 11.2139 0.777048C11.3922 1.07982 11.5278 1.27408 11.7619 1.56212C11.961 1.80595 12.3186 2.19044 12.3853 2.23332C12.4017 2.24403 12.4203 2.24805 12.4247 2.24135C12.4346 2.2293 12.2771 1.64116 12.2191 1.4737C12.1819 1.36518 12.0517 1.07714 12.0014 0.992742C11.915 0.846713 11.8724 0.786426 11.7838 0.684608C11.5771 0.447479 11.3025 0.263938 10.8639 0.0656602C10.7841 0.0294881 10.7163 1.43051e-05 10.713 1.43051e-05C10.7097 1.43051e-05 10.7075 0.00805259 10.7075 0.0174305Z" fill="#FDD3D3"/>
<path id="Vector_2" d="M3.27012 0.123269C3.21762 0.136666 2.74512 0.409968 2.6248 0.495709C2.44652 0.622982 2.28465 0.803843 2.14902 1.0249C1.97402 1.31293 1.91715 1.44423 1.85809 1.70681C1.83512 1.81131 1.79137 1.98547 1.76074 2.09667C1.73121 2.20652 1.70605 2.30432 1.70605 2.3137C1.70605 2.35389 1.7509 2.32442 1.85371 2.2159C1.91387 2.15159 2.0123 2.05112 2.07246 1.99083C2.13262 1.93188 2.26059 1.78585 2.35793 1.66796C2.5209 1.46834 2.55152 1.42279 2.79105 1.0182C3.03496 0.605566 3.10715 0.49437 3.19465 0.385853C3.24496 0.324226 3.39043 0.12193 3.39043 0.113891C3.39043 0.103173 3.3248 0.108532 3.27012 0.123269Z" fill="#FDD3D3"/>
<path id="Vector_3" d="M12.0311 0.79982C12.0311 0.803839 12.0629 0.84671 12.1011 0.896279C12.2379 1.07178 12.2915 1.1535 12.3374 1.25934C12.3932 1.39197 12.4161 1.47102 12.4632 1.69475C12.4829 1.78987 12.5474 2.07925 12.6054 2.33781C12.6622 2.59504 12.7082 2.81609 12.7071 2.82681C12.7049 2.83886 12.671 2.80403 12.6163 2.73303C12.4752 2.54815 12.3822 2.44365 12.2718 2.34451C12.2149 2.29226 12.0946 2.18508 12.0038 2.10336C11.9141 2.02164 11.8058 1.92652 11.7632 1.89035C11.6636 1.8046 11.6068 1.73092 11.4897 1.53398C11.3672 1.32901 11.3727 1.33437 11.3804 1.40671C11.4077 1.6425 11.4482 1.80193 11.539 2.02968C11.6604 2.33111 11.8879 2.6446 12.2116 2.95274C12.4391 3.16977 12.5408 3.27561 12.6972 3.46183C12.8624 3.66011 12.9521 3.79006 13.0122 3.92269L13.0538 4.01245L13.0615 3.95886C13.0724 3.87982 13.0713 2.63791 13.0593 2.40078C13.0538 2.2869 13.044 2.15829 13.0374 2.11274C13.0024 1.87159 12.8875 1.59025 12.7344 1.37188C12.554 1.11599 12.3516 0.923074 12.181 0.84537C12.1099 0.813217 12.0311 0.789102 12.0311 0.79982Z" fill="#FDD3D3"/>
<path id="Vector_4" d="M1.87994 0.988714C1.73447 1.07713 1.61197 1.18967 1.48947 1.34642C1.26306 1.63446 1.17338 1.83139 1.11759 2.16364C1.05525 2.53608 1.04541 2.79465 1.07822 3.19522C1.08806 3.31981 1.09791 3.56498 1.099 3.7378C1.10119 3.91063 1.10228 4.06335 1.10338 4.07541C1.10556 4.12498 1.13619 4.09685 1.169 4.01512C1.25978 3.79273 1.49275 3.48594 1.79353 3.19522C2.12713 2.87369 2.4115 2.49589 2.55478 2.18776C2.65322 1.97474 2.73197 1.72288 2.74181 1.59024C2.74728 1.5246 2.74509 1.51388 2.72978 1.51388C2.70572 1.51388 2.66634 1.56479 2.60181 1.67599C2.53728 1.78718 2.39728 1.93991 2.08884 2.23465C1.82525 2.48651 1.67322 2.64192 1.60103 2.7357C1.52556 2.83082 1.43369 2.98623 1.40197 3.06929C1.38556 3.11216 1.36916 3.14833 1.36478 3.14833C1.35494 3.14833 1.36697 3.09876 1.45009 2.77321C1.48947 2.62182 1.53541 2.41953 1.554 2.32441C1.64806 1.83943 1.69619 1.61302 1.73009 1.5112C1.78916 1.33168 1.86572 1.18431 1.96525 1.05972C2.01556 0.998091 2.05275 0.943163 2.04947 0.936465C2.03634 0.90967 1.97838 0.928427 1.87994 0.988714Z" fill="#FDD3D3"/>
<path id="Vector_5" d="M13.1215 1.91043C13.1073 1.92919 13.1138 1.97072 13.1455 2.04708C13.1969 2.17168 13.2429 2.34852 13.2571 2.47311C13.268 2.56421 13.268 2.68613 13.2571 3.03981C13.2494 3.28766 13.2396 3.77799 13.2352 4.13034C13.2298 4.48268 13.2232 4.77474 13.2199 4.77876C13.2166 4.78278 13.2079 4.75866 13.2013 4.72785C13.1816 4.62871 13.1335 4.45723 13.1105 4.40096C13.0274 4.19732 12.8754 3.97627 12.6151 3.68153C12.4215 3.46182 12.1448 3.12153 12.0671 3.00766C12.0343 2.95809 12.019 2.94469 12.0091 2.95541C11.9905 2.97685 12.0321 3.20594 12.0901 3.40555C12.2323 3.89589 12.2891 4.0178 12.6566 4.62603C13.0099 5.21015 13.1182 5.44192 13.2396 5.87464C13.2626 5.95503 13.2844 6.02737 13.2899 6.03407C13.3118 6.06354 13.384 5.7889 13.4802 5.32C13.5185 5.1311 13.5743 4.88995 13.6049 4.78546C13.6727 4.55235 13.6891 4.46527 13.7099 4.24823C13.7558 3.77129 13.7023 3.16306 13.583 2.79062C13.5458 2.67541 13.4551 2.45034 13.4004 2.3378C13.3216 2.17436 13.1368 1.89168 13.1215 1.91043Z" fill="#FDD3D3"/>
<path id="Vector_6" d="M0.937174 2.1154C0.858424 2.21855 0.770924 2.39272 0.644049 2.69951C0.554362 2.91788 0.522643 3.00764 0.505143 3.10142C0.451549 3.37874 0.425299 3.84764 0.447174 4.14506C0.465768 4.41032 0.505143 4.61932 0.590456 4.90736C0.746862 5.44056 0.786237 5.58927 0.842018 5.86793L0.899987 6.15329L0.924049 6.07827C0.938268 6.03807 0.964518 5.94162 0.984206 5.86525C1.00389 5.79023 1.05092 5.6509 1.08921 5.55846C1.15264 5.40573 1.49171 4.76133 1.64483 4.50142C1.84827 4.15578 1.94561 3.92401 2.06155 3.51004C2.12936 3.26755 2.15124 3.06793 2.10749 3.08401C2.09983 3.08803 2.04624 3.15903 1.98827 3.24343C1.92046 3.34257 1.84389 3.43635 1.77499 3.50334C1.61749 3.65606 1.36264 3.97492 1.25983 4.1464C1.11108 4.39157 1.00717 4.66889 0.953581 4.95693C0.931706 5.06946 0.931706 5.06946 0.930612 5.00382C0.929518 4.9663 0.937174 4.7975 0.947018 4.6287C0.968893 4.26028 0.960143 4.00841 0.907643 3.51004C0.889049 3.33721 0.871549 3.11616 0.867174 3.02104C0.855143 2.70755 0.895612 2.40477 0.978737 2.173C0.999518 2.11406 1.01702 2.06181 1.01702 2.05779C1.01702 2.03233 0.980924 2.05913 0.937174 2.1154Z" fill="#FDD3D3"/>
<path id="Vector_7" d="M13.898 4.18927C13.8947 4.19597 13.887 4.28975 13.8794 4.40095C13.8477 4.91004 13.7634 5.28784 13.5567 5.85453C13.4145 6.24305 13.303 6.65836 13.2723 6.91559C13.268 6.95176 13.2603 6.97989 13.2548 6.97989C13.2417 6.97989 13.2352 6.91693 13.2231 6.67176C13.2177 6.54985 13.2045 6.41186 13.1958 6.3663C13.1662 6.21626 12.9989 5.76879 12.9114 5.60669C12.8677 5.52497 12.8086 5.41109 12.7802 5.35214C12.7036 5.19272 12.5166 4.74391 12.5012 4.68229C12.4947 4.65281 12.487 4.62066 12.4848 4.61262C12.4772 4.58583 12.4498 4.60726 12.4345 4.65013C12.4148 4.70908 12.4291 5.01453 12.4619 5.25836C12.5319 5.76745 12.638 6.2886 12.7987 6.91291C12.9191 7.38047 12.9202 7.38985 12.9223 7.83865C12.9245 8.05032 12.9289 8.22985 12.9322 8.23788C12.9464 8.26602 12.9595 8.25262 13.0273 8.13473C13.0656 8.07042 13.1761 7.88822 13.2723 7.73013C13.6891 7.04956 13.7798 6.88477 13.8509 6.6798C14.1134 5.92822 14.1462 4.86583 13.9286 4.22946C13.9111 4.17855 13.9067 4.17186 13.898 4.18927Z" fill="#FDD3D3"/>
<path id="Vector_8" d="M0.229309 4.40766C0.175715 4.62603 0.124309 5.00785 0.113371 5.26507C0.103527 5.48881 0.135246 5.91617 0.18009 6.16402C0.204152 6.29665 0.286184 6.59139 0.348527 6.76957C0.475402 7.12995 0.627434 7.42067 0.858215 7.73684C0.966496 7.88555 1.09993 8.10259 1.17431 8.25129C1.20493 8.31292 1.23556 8.36651 1.24322 8.36919C1.26728 8.37991 1.27712 8.27675 1.28368 7.95522C1.29353 7.49704 1.31212 7.34565 1.39415 7.03349C1.43681 6.87005 1.55056 6.37704 1.62275 6.04211C1.649 5.92019 1.66431 5.81034 1.67853 5.65359C1.6829 5.6134 1.69822 5.49282 1.71353 5.38565C1.7354 5.2289 1.74087 5.14048 1.74197 4.92077C1.74306 4.7734 1.74087 4.64613 1.7354 4.64077C1.70587 4.60326 1.48275 5.11904 1.21915 5.83445C1.00259 6.41991 0.979621 6.52574 0.982903 6.92766C0.983996 7.07904 0.979621 7.21837 0.974153 7.23579L0.964309 7.26794L0.953371 7.23445C0.947903 7.2157 0.929309 7.10986 0.912903 7C0.856027 6.60479 0.79259 6.3489 0.690871 6.10239C0.664621 6.03541 0.629621 5.94297 0.615402 5.89474C0.601184 5.84651 0.56509 5.74067 0.535559 5.66029C0.37259 5.21282 0.32009 4.98641 0.294934 4.62201C0.277434 4.37282 0.271965 4.31388 0.261027 4.31388C0.256652 4.31388 0.242434 4.35541 0.229309 4.40766Z" fill="#FDD3D3"/>
<path id="Vector_9" d="M12.5046 6.54719C12.4488 6.6959 12.3503 7.13264 12.3219 7.35504C12.2869 7.63504 12.2224 8.36652 12.2114 8.62776C12.1994 8.90106 12.1557 9.24135 12.0868 9.59504C12.043 9.82145 12.0113 9.93264 11.9446 10.1001C11.9139 10.1765 11.8921 10.2448 11.8953 10.2515C11.9019 10.2636 11.9074 10.2609 12.1403 10.0827C12.2836 9.97417 12.7944 9.55886 12.9716 9.40614C13.0799 9.3137 13.2264 9.15829 13.3544 9.00288C13.7263 8.54604 13.9505 8.07312 14.0435 7.54929C14.1102 7.1715 14.1288 6.72805 14.0818 6.64901C14.0588 6.6115 14.0457 6.63963 14.0271 6.76824C13.9964 6.98662 13.9166 7.21169 13.8007 7.40862C13.6989 7.58011 13.6607 7.6337 13.3872 7.9914C12.9727 8.53398 12.9377 8.58489 12.7583 8.9024C12.5855 9.20652 12.5089 9.33781 12.5035 9.33245C12.5013 9.32977 12.5243 9.26815 12.5538 9.1958C12.6938 8.8515 12.7561 8.41073 12.72 8.02221C12.7135 7.95791 12.6872 7.75963 12.6599 7.58011C12.5855 7.08307 12.5768 7.00671 12.5669 6.74279C12.5614 6.60882 12.5538 6.48958 12.5483 6.47752C12.5396 6.46011 12.5308 6.47484 12.5046 6.54719Z" fill="#FDD3D3"/>
<path id="Vector_10" d="M1.65765 6.70123C1.65437 6.71061 1.64999 6.76554 1.64671 6.82315C1.63906 6.95042 1.5964 7.26659 1.55812 7.48229C1.51109 7.74621 1.49906 7.86678 1.4914 8.1575C1.48265 8.48975 1.49906 8.77645 1.53624 8.95731C1.56249 9.0819 1.58328 9.14353 1.65765 9.30698C1.74296 9.49186 1.64999 9.37664 1.53843 9.15693C1.41156 8.91042 1.29562 8.7376 0.929213 8.262C0.513588 7.71942 0.465463 7.65243 0.392181 7.5131C0.25765 7.25721 0.201869 7.10985 0.17015 6.92229C0.160306 6.86468 0.147181 6.80439 0.139525 6.78831C0.127494 6.76018 0.1264 6.76152 0.116556 6.81243C0.103431 6.88611 0.115462 7.35635 0.136244 7.52918C0.171244 7.83195 0.228119 8.04497 0.346244 8.31827C0.501556 8.67463 0.66015 8.91444 0.967494 9.25205C1.06265 9.35654 1.59093 9.81875 1.78562 9.96745C1.83812 10.0076 1.97374 10.1148 2.08749 10.2046C2.27999 10.3586 2.32921 10.3895 2.32921 10.356C2.32921 10.3479 2.28984 10.2354 2.24281 10.1041C2.19468 9.97415 2.14656 9.8241 2.13453 9.7732C2.06999 9.49855 2.01859 9.10602 1.99015 8.68133C1.93218 7.8065 1.82171 7.02009 1.71999 6.75482C1.69484 6.68918 1.6664 6.66506 1.65765 6.70123Z" fill="#FDD3D3"/>
<path id="Vector_11" d="M12.018 8.27541C11.9917 8.31159 11.9184 8.43484 11.7762 8.68135C11.6406 8.91714 11.4952 9.23331 11.4262 9.44498C11.4109 9.49321 11.3836 9.57761 11.3661 9.63254C11.3475 9.68747 11.2906 9.88709 11.2381 10.0746C11.1069 10.5516 11.0642 10.6869 10.9898 10.8704C10.875 11.1518 10.7941 11.2978 10.6322 11.5122C10.583 11.5765 10.5458 11.6368 10.5502 11.6435C10.5589 11.6609 10.6431 11.6475 10.6967 11.6193C10.7853 11.5751 11.0555 11.5028 11.342 11.4479C11.6691 11.3849 11.9677 11.2764 12.1842 11.1384C12.5156 10.9294 12.9477 10.5034 13.1577 10.1818C13.3819 9.83752 13.5055 9.5401 13.6072 9.098C13.6608 8.86221 13.6509 8.85551 13.5514 9.0645C13.4475 9.28154 13.2725 9.51465 13.0461 9.73972C12.9072 9.87771 12.8186 9.94068 12.392 10.2086C11.8473 10.5502 11.5466 10.7834 11.3005 11.0553C11.2031 11.1638 11.2141 11.125 11.3223 10.979C11.4645 10.786 11.5597 10.6159 11.6516 10.3881C11.7719 10.0921 11.8014 9.95273 11.8998 9.23063C11.9534 8.83407 11.9884 8.64116 12.0387 8.44958C12.0759 8.30757 12.0803 8.25264 12.0584 8.24326C12.0519 8.24058 12.0333 8.25532 12.018 8.27541Z" fill="#FDD3D3"/>
<path id="Vector_12" d="M2.12931 8.35446C2.11946 8.36785 2.1304 8.43082 2.17743 8.61704C2.2015 8.70948 2.22665 8.83005 2.2354 8.88498C2.24306 8.93857 2.26712 9.09398 2.289 9.23063C2.31087 9.36728 2.33384 9.53742 2.3404 9.61111C2.35353 9.76651 2.38853 9.94336 2.45743 10.2019C2.51212 10.4069 2.53837 10.4766 2.63025 10.6668C2.71665 10.841 2.77025 10.9227 2.85884 11.0124C2.90149 11.0553 2.96384 11.125 2.99665 11.1665L3.05681 11.2442L2.96384 11.1652C2.91243 11.1223 2.83696 11.0567 2.79431 11.0178C2.57446 10.8195 2.20478 10.5301 2.06696 10.4498C1.3604 10.0331 1.1504 9.87771 0.917432 9.59369C0.799307 9.449 0.719464 9.32575 0.633057 9.15426C0.58712 9.06048 0.56087 9.02967 0.571807 9.07924C0.575089 9.09264 0.583839 9.14489 0.591495 9.19714C0.614464 9.36058 0.742432 9.7156 0.864932 9.95809C0.949151 10.1242 1.06618 10.3091 1.18103 10.4551C1.49493 10.8557 1.81431 11.125 2.18509 11.3032C2.35571 11.3849 2.50556 11.4304 2.83259 11.5001C2.98681 11.5323 3.17603 11.5778 3.25368 11.6006C3.52712 11.6796 3.654 11.6997 3.66931 11.6689C3.67259 11.6622 3.66165 11.6475 3.64525 11.6368C3.55118 11.5765 3.35431 11.2389 3.21103 10.8932C3.1115 10.6534 3.10603 10.6373 2.98571 10.2086C2.76915 9.43426 2.63571 9.10871 2.36337 8.68135C2.31853 8.61168 2.25618 8.50718 2.22337 8.44958C2.16868 8.35446 2.14681 8.33302 2.12931 8.35446Z" fill="#FDD3D3"/>
<path id="Vector_13" d="M11.0521 10.0599C10.9515 10.1309 10.8476 10.2367 10.456 10.6695C10.4167 10.7137 10.2821 10.8704 10.1553 11.0178C9.80635 11.4264 9.69807 11.5389 9.50447 11.6957C9.30541 11.8551 9.114 11.9502 8.87557 12.0078C8.68635 12.0534 8.69291 12.0963 8.89197 12.1177C8.9915 12.1284 9.09979 12.1552 9.3951 12.2436C9.66416 12.3227 10.0131 12.4111 10.2088 12.4486C10.4167 12.4875 10.8017 12.4968 10.9701 12.4674C11.4798 12.3763 11.9698 12.0467 12.3253 11.559C12.4423 11.3969 12.6151 11.0674 12.5954 11.0432C12.5888 11.0339 12.5309 11.0915 12.4029 11.2335C12.2859 11.3634 12.241 11.4009 12.1098 11.4813C11.8254 11.6515 11.6646 11.6957 11.0303 11.7828C10.8378 11.8096 10.5676 11.8484 10.4287 11.8698C10.1837 11.9074 9.85885 11.9502 9.82275 11.9502C9.81291 11.9489 9.84682 11.9288 9.89822 11.906C10.0984 11.8109 10.3445 11.6341 10.4243 11.5269C10.4779 11.4532 10.6059 11.2308 10.6813 11.0794C10.7437 10.9535 10.7962 10.8235 10.9099 10.5141C10.9417 10.4283 11.0007 10.2917 11.0412 10.2099C11.1287 10.0318 11.1298 10.005 11.0521 10.0599Z" fill="#FDD3D3"/>
<path id="Vector_14" d="M3.08866 10.1215C3.09304 10.1403 3.12694 10.2167 3.16522 10.293C3.2035 10.3681 3.30085 10.5837 3.38288 10.7726C3.66069 11.413 3.76132 11.5778 3.98554 11.756C4.09491 11.8444 4.17913 11.8926 4.31257 11.9436C4.36507 11.9637 4.40772 11.9837 4.40772 11.9891C4.40772 11.9998 4.37819 11.9971 4.15616 11.9637C3.93741 11.9302 3.51194 11.8779 3.17179 11.8431C2.75725 11.8015 2.6271 11.7761 2.4171 11.7024C2.171 11.614 1.98507 11.4961 1.79366 11.3072C1.60116 11.117 1.58147 11.1263 1.71054 11.3487C1.84397 11.5765 2.03975 11.827 2.22022 11.9971C2.48272 12.245 2.83054 12.4379 3.13897 12.5076C3.26585 12.537 3.65741 12.5478 3.83569 12.5277C4.01725 12.5076 4.23819 12.4647 4.3421 12.4326C4.38694 12.4178 4.47882 12.391 4.54444 12.3723C4.61116 12.3548 4.75882 12.3093 4.87257 12.2731C4.98741 12.237 5.16132 12.186 5.26085 12.1592C5.36038 12.1325 5.45335 12.107 5.46866 12.103C5.48944 12.0963 5.46866 12.0856 5.38007 12.0561C5.25647 12.0159 4.89225 11.8498 4.75444 11.7721C4.58929 11.6783 4.51491 11.6046 4.08507 11.1062C3.63007 10.5784 3.35772 10.2863 3.19585 10.1537C3.10397 10.0787 3.07882 10.0706 3.08866 10.1215Z" fill="#FDD3D3"/>
<path id="Vector_15" d="M7.66704 12.0588C7.52704 12.0748 7.38157 12.1083 7.2536 12.1525C7.19017 12.174 7.12563 12.1914 7.10923 12.1914C7.09392 12.1914 7.03813 12.174 6.98563 12.1525C6.84017 12.0923 6.75157 12.0802 6.42563 12.0802C6.07673 12.0789 5.94329 12.0976 5.7147 12.1767C5.45876 12.2664 5.05517 12.4513 4.69642 12.6442C4.49407 12.7527 4.35735 12.8077 4.1736 12.8532C3.72954 12.9644 3.3861 12.9162 2.97267 12.6857C2.8611 12.6241 2.81079 12.6067 2.81079 12.6308C2.81079 12.6442 2.9847 12.8545 3.05142 12.9229C3.17829 13.0515 3.41563 13.2176 3.63657 13.3342C3.83782 13.4387 4.25782 13.515 4.4361 13.4789C4.75876 13.4119 4.8911 13.3703 5.06282 13.2806C5.27282 13.1707 5.4161 13.0662 5.85688 12.7005C6.15329 12.4553 6.33704 12.3522 6.54813 12.312C6.63782 12.2959 6.73845 12.3012 6.77017 12.3254C6.79313 12.3428 6.77673 12.3562 6.57329 12.4875C6.22657 12.7112 5.99032 12.9108 5.6272 13.2833C5.46204 13.4521 5.28595 13.6597 5.2761 13.6945C5.26735 13.728 5.30126 13.7723 5.41938 13.8861C5.53095 13.992 5.55063 14.0054 5.57688 13.9879C5.58782 13.9799 5.62938 13.9263 5.66876 13.8701C5.83063 13.6329 6.27032 13.1265 6.44423 12.9751C6.49454 12.9323 6.58751 12.8492 6.65313 12.7916C6.71767 12.7326 6.80845 12.6603 6.85548 12.6308C6.90142 12.6 6.95938 12.5585 6.98345 12.5397C7.0447 12.4901 7.07095 12.4848 7.15735 12.5062C7.30501 12.5437 7.41876 12.6281 7.74907 12.939C7.98532 13.1613 8.10563 13.2913 8.33423 13.57C8.57048 13.8593 8.66673 13.9598 8.70501 13.9598C8.76079 13.9598 8.95767 13.7254 8.95767 13.6584C8.95767 13.6222 8.80782 13.4454 8.6186 13.2618C8.47204 13.1185 8.40751 13.0609 8.0772 12.7742C8.01157 12.7166 7.84423 12.596 7.70642 12.5049L7.45704 12.3414L7.52048 12.324C7.6222 12.2959 7.76876 12.3026 7.86392 12.3374C8.01704 12.395 8.18767 12.5129 8.44142 12.7367C8.67438 12.943 8.99595 13.1613 9.19829 13.2538C9.61501 13.444 10.1411 13.4708 10.5108 13.3208C10.6267 13.2752 10.8849 13.1198 10.9986 13.0274C11.1922 12.8706 11.4634 12.5759 11.4459 12.5397C11.4383 12.525 11.4274 12.5303 11.2327 12.6442C10.9986 12.7822 10.8663 12.817 10.548 12.8304C10.1203 12.8479 9.84579 12.7822 9.46735 12.5745C9.03532 12.3361 8.60876 12.1539 8.3397 12.0909C8.15485 12.048 7.87157 12.0346 7.66704 12.0588Z" fill="#FDD3D3"/>
</g>
</g>
<defs>
<clipPath id="clip0_445_50">
<rect width="14" height="14" fill="white" transform="translate(0.109131)"/>
</clipPath>
</defs>
</svg>
