<svg width="14" height="14" viewBox="0 0 14 14" fill="none" xmlns="http://www.w3.org/2000/svg">
<g id="list-round-bullet-outline-icon 1" clip-path="url(#clip0_261_66)">
<path id="Vector" d="M2.72535 1.03219C2.50797 1.03219 2.33133 0.822337 2.33133 0.563566C2.33133 0.305117 2.50797 0.0952687 2.72535 0.0952687H13.606C13.8234 0.0952687 14 0.305117 14 0.563566C14 0.822337 13.8234 1.03219 13.606 1.03219H2.72535ZM0.474414 14C0.212461 14 0 13.7473 0 13.4361C0 13.1252 0.212461 12.8725 0.474414 12.8725H0.489727C0.75168 12.8725 0.964141 13.1252 0.964141 13.4361C0.964141 13.7473 0.75168 14 0.489727 14H0.474414ZM0.474414 9.73865C0.212461 9.73865 0 9.486 0 9.17477C0 8.86353 0.212461 8.6112 0.474414 8.6112H0.489727C0.75168 8.6112 0.964141 8.86353 0.964141 9.17477C0.964141 9.486 0.75168 9.73865 0.489727 9.73865H0.474414ZM0.474414 5.38912C0.212461 5.38912 0 5.13647 0 4.82523C0 4.514 0.212461 4.26167 0.474414 4.26167H0.489727C0.75168 4.26167 0.964141 4.514 0.964141 4.82523C0.964141 5.13647 0.75168 5.38912 0.489727 5.38912H0.474414ZM2.75488 9.64306C2.56375 9.64306 2.40871 9.43354 2.40871 9.17477C2.40871 8.91632 2.56375 8.70647 2.75488 8.70647H13.5767C13.7679 8.70647 13.9229 8.91632 13.9229 9.17477C13.9229 9.43354 13.7679 9.64306 13.5767 9.64306H2.75488ZM2.75488 5.29353C2.56375 5.29353 2.40871 5.084 2.40871 4.82523C2.40871 4.56678 2.56375 4.35694 2.75488 4.35694H13.5767C13.7679 4.35694 13.9229 4.56678 13.9229 4.82523C13.9229 5.084 13.7679 5.29353 13.5767 5.29353H2.75488ZM2.75488 13.9047C2.53941 13.9047 2.36496 13.6949 2.36496 13.4361C2.36496 13.1777 2.53941 12.9678 2.75488 12.9678H13.5767C13.7919 12.9678 13.9666 13.1777 13.9666 13.4361C13.9666 13.6949 13.7919 13.9047 13.5767 13.9047H2.75488ZM0.474414 1.12745C0.212461 1.12745 0 0.874799 0 0.563566C0 0.252655 0.212461 0 0.474414 0H0.489727C0.75168 0 0.964141 0.252655 0.964141 0.563566C0.964141 0.874799 0.75168 1.12745 0.489727 1.12745H0.474414Z" fill="#FDD3D3"/>
</g>
<defs>
<clipPath id="clip0_261_66">
<rect width="14" height="14" fill="white"/>
</clipPath>
</defs>
</svg>
