<svg width="20" height="20" viewBox="0 0 20 20" fill="none" xmlns="http://www.w3.org/2000/svg">
<path d="M1.73301 1.72306H3.36116V0.914988C3.36116 0.685965 3.60437 0.5 3.90437 0.5C4.20388 0.5 4.44709 0.685965 4.44709 0.914988V1.72306H6.83592V0.914988C6.83592 0.685965 7.07913 0.5 7.37913 0.5C7.67864 0.5 7.92184 0.685965 7.92184 0.914988V1.72306H10.3107V0.914988C10.3107 0.685965 10.5539 0.5 10.8539 0.5C11.1534 0.5 11.3966 0.685965 11.3966 0.914988V1.72306H13.7854V0.914988C13.7854 0.685965 14.0286 0.5 14.3286 0.5C14.6282 0.5 14.8714 0.685965 14.8714 0.914988V1.72306H16.5485C17.0257 1.72306 17.4592 1.87265 17.7723 2.11244C18.0325 2.31103 18.2112 2.57271 18.265 2.86335H18.267C18.7437 2.86335 19.1777 3.01294 19.4908 3.25236C19.8049 3.49252 20 3.82436 20 4.1885V18.1749C20 18.5375 19.8039 18.869 19.4908 19.1091C19.1748 19.3504 18.7408 19.5 18.267 19.5H3.28689C2.81068 19.5 2.3767 19.3508 2.06262 19.1106C1.76456 18.8827 1.57282 18.5713 1.55534 18.2272C1.14951 18.1953 0.783495 18.0542 0.509223 17.8445C0.195631 17.6051 0 17.2736 0 16.9087V3.04821C0 2.68333 0.195631 2.35149 0.508738 2.11207C0.821845 1.87265 1.25583 1.72306 1.73301 1.72306ZM18.2816 3.61835V16.9087C18.2816 17.2725 18.0859 17.6043 17.7723 17.8441C17.4583 18.0843 17.0243 18.2339 16.5485 18.2339H2.54515C2.56408 18.3671 2.64272 18.487 2.76068 18.5772C2.89612 18.6808 3.08301 18.7454 3.28689 18.7454H18.267C18.4718 18.7454 18.6587 18.6808 18.7937 18.5776C18.9286 18.4744 19.0131 18.3315 19.0131 18.1749V4.1885C19.0131 4.0326 18.9286 3.88969 18.7927 3.78613C18.6571 3.68179 18.4739 3.62166 18.2816 3.61835ZM4.00971 14.842C3.73107 14.842 3.50485 14.6616 3.50485 14.4392C3.50485 14.2169 3.73107 14.0365 4.00971 14.0365H14.4359C14.7146 14.0365 14.9413 14.2169 14.9413 14.4392C14.9413 14.6616 14.7146 14.842 14.4359 14.842H4.00971ZM4.00971 12.185C3.73107 12.185 3.50485 12.0046 3.50485 11.7823C3.50485 11.5599 3.73107 11.3795 4.00971 11.3795H14.4359C14.7146 11.3795 14.9413 11.5599 14.9413 11.7823C14.9413 12.0046 14.7146 12.185 14.4359 12.185H4.00971ZM4.00971 9.52803C3.73107 9.52803 3.50485 9.34764 3.50485 9.1253C3.50485 8.90295 3.73107 8.72256 4.00971 8.72256H14.4359C14.7146 8.72256 14.9413 8.90295 14.9413 9.1253C14.9413 9.34764 14.7146 9.52803 14.4359 9.52803H4.00971ZM4.00971 6.87107C3.73107 6.87107 3.50485 6.69067 3.50485 6.46833C3.50485 6.24599 3.73107 6.06559 4.00971 6.06559H14.4359C14.7146 6.06559 14.9413 6.24599 14.9413 6.46833C14.9413 6.69067 14.7146 6.87107 14.4359 6.87107H4.00971ZM14.8714 2.47769V3.28577C14.8714 3.51479 14.6282 3.70075 14.3286 3.70075C14.0286 3.70075 13.7854 3.51479 13.7854 3.28577V2.47769H11.3966V3.28577C11.3966 3.51479 11.1534 3.70075 10.8539 3.70075C10.5539 3.70075 10.3107 3.51479 10.3107 3.28577V2.47769H7.92184V3.28577C7.92184 3.51479 7.67864 3.70075 7.37913 3.70075C7.07913 3.70075 6.83592 3.51479 6.83592 3.28577V2.47769H4.44709V3.28577C4.44709 3.51479 4.20388 3.70075 3.90437 3.70075C3.60437 3.70075 3.36116 3.51479 3.36116 3.28577V2.47769H1.73301C1.52816 2.47769 1.34126 2.54265 1.20631 2.64547C1.07184 2.74866 0.986893 2.89156 0.986893 3.04821V16.9087C0.986893 17.0646 1.07184 17.2075 1.2068 17.3111C1.34272 17.4147 1.52961 17.4793 1.73301 17.4793H16.5485C16.7519 17.4793 16.9383 17.4143 17.0743 17.3107C17.2097 17.2068 17.2947 17.0639 17.2947 16.9087V3.04821C17.2947 2.89268 17.2102 2.74977 17.0748 2.64584C16.9393 2.54265 16.7524 2.47769 16.5485 2.47769H14.8714Z" fill="#FDD3D3"/>
</svg>
