<svg width="14" height="13" viewBox="0 0 14 13" fill="none" xmlns="http://www.w3.org/2000/svg">
<g id="Group">
<g id="Group_2">
<path id="Vector" d="M7.10941 12.7207C7.00003 12.7207 6.89066 12.6902 6.79769 12.6318C2.76995 10.1156 0.443001 6.35529 0.410188 2.3131C0.407454 2.07697 0.57972 1.86876 0.825813 1.80782L6.96722 0.294543C7.06019 0.271692 7.15863 0.271692 7.25433 0.294543L13.3957 1.80782C13.6418 1.86876 13.8114 2.07697 13.8114 2.3131C13.7813 6.35275 11.4516 10.1156 7.42386 12.6318C7.32816 12.6902 7.21878 12.7207 7.10941 12.7207ZM1.53949 2.70665C1.70902 6.14454 3.71605 9.34122 7.10941 11.5731C10.5028 9.34122 12.5098 6.14454 12.6793 2.70665L7.10941 1.33302L1.53949 2.70665Z" fill="#FDD3D3"/>
</g>
</g>
</svg>
