<svg width="15" height="15" viewBox="0 0 15 15" fill="none" xmlns="http://www.w3.org/2000/svg">
<g id="help-svgrepo-com 2" clip-path="url(#clip0_445_70)">
<path id="Vector" d="M14.3812 7.75001C14.3812 11.2938 11.5083 14.1667 7.96452 14.1667C4.42069 14.1667 1.54785 11.2938 1.54785 7.75001C1.54785 4.20618 4.42069 1.33334 7.96452 1.33334C11.5083 1.33334 14.3812 4.20618 14.3812 7.75001ZM2.7185 7.75001C2.7185 10.6473 5.06722 12.996 7.96452 12.996C10.8618 12.996 13.2106 10.6473 13.2106 7.75001C13.2106 4.85272 10.8618 2.50399 7.96452 2.50399C5.06722 2.50399 2.7185 4.85272 2.7185 7.75001Z" fill="#FDD3D3"/>
<path id="Vector_2" d="M8.8396 11.25C8.8396 11.7332 8.44783 12.125 7.9646 12.125C7.48137 12.125 7.0896 11.7332 7.0896 11.25C7.0896 10.7668 7.48137 10.375 7.9646 10.375C8.44783 10.375 8.8396 10.7668 8.8396 11.25Z" fill="#FDD3D3"/>
<path id="Vector_3" d="M7.38119 7.75001V8.91668C7.38119 8.91668 7.38119 9.50001 7.96452 9.50001C8.54785 9.50001 8.54785 8.91668 8.54785 8.91668V7.75001C8.54785 7.75001 8.82739 7.67003 8.93455 7.62652C8.93455 7.62652 9.12938 7.55699 9.26576 7.45228C9.4022 7.34763 9.52558 7.22326 9.636 7.07935C9.7529 6.93538 9.84385 6.76855 9.90877 6.5788C9.9737 6.38905 10.0062 6.23556 10.0062 6.00001C10.0062 5.60743 9.91851 5.20478 9.74316 4.91034C9.57429 4.60937 9.33395 4.3771 9.02222 4.21352C8.71049 4.04341 8.34678 3.95834 7.9311 3.95834C7.67134 3.95834 7.44075 3.99106 7.23944 4.05649C7.03807 4.11538 6.85951 4.19716 6.70361 4.30185C6.55423 4.4 6.42758 4.51123 6.32367 4.63554C6.22625 4.75332 6.14831 4.86782 6.08986 4.97905C6.03141 5.09028 5.99244 5.18842 5.97296 5.27348C5.93398 5.39779 5.91775 5.49921 5.92424 5.57773C5.93723 5.65625 5.9762 5.72167 6.04115 5.77402C6.1061 5.82636 6.20676 5.88197 6.34315 5.94086C6.48604 5.98666 6.59645 6.00302 6.67439 5.98994C6.75882 5.97685 6.82702 5.93759 6.879 5.87216C6.879 5.87216 7.1559 5.47833 7.23384 5.39981C7.3183 5.31476 7.4222 5.24933 7.54563 5.20353C7.669 5.15118 7.80865 5.12501 7.96452 5.12501C8.30227 5.12501 8.55229 5.2068 8.71469 5.37037C8.8835 5.52741 8.93455 5.65951 8.93455 5.96049C8.93455 6.16332 8.89885 6.3269 8.82739 6.45121C8.75593 6.57553 8.66178 6.67697 8.54488 6.75549C8.54488 6.75549 8.3861 6.81615 8.25619 6.87501C8.13281 6.92734 7.90625 7.0139 7.78935 7.07935C7.67892 7.13821 7.61703 7.2001 7.54563 7.29174C7.47417 7.38333 7.38119 7.59298 7.38119 7.75001Z" fill="#FDD3D3"/>
</g>
<defs>
<clipPath id="clip0_445_70">
<rect width="14" height="14" fill="white" transform="translate(0.9646 0.75)"/>
</clipPath>
</defs>
</svg>
