<svg width="38" height="39" viewBox="0 0 38 39" fill="none" xmlns="http://www.w3.org/2000/svg">
<path d="M30.4101 9.28638C30.1756 9.16176 29.9473 9.02514 29.7261 8.87705C29.0829 8.43977 28.4932 7.92453 27.9697 7.34242C26.6597 5.8011 26.1705 4.23744 25.9903 3.14267H25.9975C25.847 2.23395 25.9092 1.646 25.9186 1.646H19.9523V25.3709C19.9523 25.6895 19.9523 26.0043 19.9392 26.3154C19.9392 26.3541 19.9356 26.3898 19.9334 26.4315C19.9334 26.4486 19.9334 26.4664 19.9298 26.4843C19.9298 26.4888 19.9298 26.4932 19.9298 26.4977C19.8669 27.349 19.6016 28.1713 19.1571 28.8923C18.7126 29.6133 18.1027 30.211 17.3809 30.6327C16.6286 31.0728 15.7777 31.3037 14.9122 31.3025C12.1324 31.3025 9.87948 28.9716 9.87948 26.0928C9.87948 23.2141 12.1324 20.8832 14.9122 20.8832C15.4385 20.8826 15.9614 20.9678 16.4617 21.1354L16.469 14.8883C14.9501 14.6865 13.4071 14.8107 11.9373 15.2528C10.4674 15.695 9.10266 16.4457 7.92904 17.4574C6.90068 18.3762 6.03613 19.4726 5.3743 20.6971C5.12244 21.1436 4.17219 22.938 4.05712 25.8502C3.98475 27.5032 4.46747 29.2157 4.69762 29.9235V29.9383C4.84236 30.3551 5.40325 31.7774 6.31731 32.9763C7.05438 33.9381 7.9252 34.7829 8.90173 35.4837V35.4688L8.9162 35.4837C11.8046 37.5021 15.0071 37.3696 15.0071 37.3696C15.5614 37.3465 17.4185 37.3696 19.5274 36.3418C21.8665 35.2024 23.1982 33.5047 23.1982 33.5047C24.0489 32.4904 24.7253 31.3344 25.1985 30.0864C25.7384 28.627 25.9186 26.8765 25.9186 26.1769V13.5903C25.991 13.635 26.955 14.2907 26.955 14.2907C26.955 14.2907 28.3438 15.2061 30.5107 15.8022C32.0652 16.2264 34.1597 16.3157 34.1597 16.3157V10.2249C33.4258 10.3067 31.9357 10.0686 30.4101 9.28638Z" fill="#FDD3D3"/>
</svg>
