<svg width="38" height="30" viewBox="0 0 38 30" fill="none" xmlns="http://www.w3.org/2000/svg">
<path d="M31.3888 2.61076C28.9902 1.45669 26.4255 0.61796 23.7441 0.140381C23.4148 0.752621 23.0301 1.5761 22.7649 2.23117C19.9145 1.79036 17.0904 1.79036 14.2925 2.23117C14.0273 1.5761 13.6339 0.752621 13.3016 0.140381C10.6174 0.61796 8.04974 1.45977 5.65113 2.61687C0.813106 10.135 -0.498402 17.4664 0.157353 24.6938C3.36618 27.158 6.47593 28.6549 9.53319 29.6345C10.288 28.5661 10.9613 27.4304 11.5412 26.2335C10.4367 25.8019 9.37872 25.2693 8.37909 24.6509C8.64429 24.4489 8.9037 24.2376 9.15431 24.0203C15.2514 26.9529 21.876 26.9529 27.9002 24.0203C28.1537 24.2376 28.4131 24.4489 28.6754 24.6509C27.6728 25.2723 26.612 25.8049 25.5074 26.2366C26.0874 27.4304 26.7577 28.5692 27.5155 29.6375C30.5757 28.6579 33.6883 27.1611 36.8971 24.6938C37.6666 16.3155 35.5827 9.05137 31.3888 2.61076ZM12.3719 20.249C10.5416 20.249 9.04064 18.4919 9.04064 16.3522C9.04064 14.2124 10.5096 12.4523 12.3719 12.4523C14.2343 12.4523 15.7352 14.2094 15.7031 16.3522C15.706 18.4919 14.2343 20.249 12.3719 20.249ZM24.6826 20.249C22.8523 20.249 21.3514 18.4919 21.3514 16.3522C21.3514 14.2124 22.8202 12.4523 24.6826 12.4523C26.5449 12.4523 28.0459 14.2094 28.0139 16.3522C28.0139 18.4919 26.5449 20.249 24.6826 20.249Z" fill="#FDD3D3"/>
</svg>
