<svg width="15" height="16" viewBox="0 0 15 16" fill="none" xmlns="http://www.w3.org/2000/svg">
<g id="icons8-home 1">
<path id="Vector" d="M7.5 1.75C7.36931 1.75001 7.24381 1.80119 7.15039 1.89258L1.69629 6.35352C1.68999 6.35825 1.6838 6.36314 1.67773 6.36816L1.65918 6.38379V6.38477C1.60903 6.43148 1.56902 6.48801 1.54164 6.55084C1.51426 6.61367 1.50008 6.68146 1.5 6.75C1.5 6.88261 1.55268 7.00979 1.64645 7.10355C1.74021 7.19732 1.86739 7.25 2 7.25H2.5V12.75C2.5 13.3025 2.9475 13.75 3.5 13.75H11.5C12.0525 13.75 12.5 13.3025 12.5 12.75V7.25H13C13.1326 7.25 13.2598 7.19732 13.3536 7.10355C13.4473 7.00979 13.5 6.88261 13.5 6.75C13.5001 6.6813 13.4859 6.61332 13.4586 6.55031C13.4312 6.48731 13.3911 6.43062 13.3408 6.38379L13.333 6.37793C13.322 6.36799 13.3106 6.35854 13.2988 6.34961L12.5 5.69629V3.75C12.5 3.474 12.276 3.25 12 3.25H11.5C11.224 3.25 11 3.474 11 3.75V4.46973L7.83887 1.88379C7.74676 1.79816 7.62576 1.75039 7.5 1.75ZM9 8.25H11V12.25H9V8.25Z" fill="#FDD3D3"/>
</g>
</svg>
