<svg width="15" height="15" viewBox="0 0 15 15" fill="none" xmlns="http://www.w3.org/2000/svg">
<g id="Ping" clip-path="url(#clip0_261_70)">
<g id="Group">
<g id="Group_2">
<path id="Vector" d="M7.50006 0C4.85304 0 2.70752 2.14552 2.70752 4.79254C2.70752 5.934 3.10889 6.98061 3.77581 7.80334C3.99078 8.06812 4.35043 8.48504 4.53789 8.77012C5.61733 10.41 7.00215 12.7916 7.40571 14.7461C7.47495 15.0799 7.55841 15.0857 7.64825 14.757C7.9361 13.7031 8.68264 11.4004 10.2243 8.99098C10.4082 8.70365 10.7809 8.30151 11.0123 8.05115C11.3474 7.68818 11.6264 7.27265 11.8384 6.81958C12.1273 6.20155 12.2925 5.51735 12.2925 4.7931C12.2925 2.14578 10.147 0 7.50006 0ZM7.50006 7.38193C6.02263 7.38193 4.82497 6.18426 4.82497 4.70684C4.82497 3.22966 6.02263 2.03205 7.50006 2.03205C8.97749 2.03205 10.1752 3.22971 10.1752 4.70684C10.1752 6.18432 8.97749 7.38193 7.50006 7.38193Z" fill="#FDD3D3"/>
<path id="Vector_2" d="M7.50022 5.7248C8.11464 5.7248 8.61274 5.2267 8.61274 4.61228C8.61274 3.99785 8.11464 3.49976 7.50022 3.49976C6.88579 3.49976 6.3877 3.99785 6.3877 4.61228C6.3877 5.2267 6.88579 5.7248 7.50022 5.7248Z" fill="#FDD3D3"/>
</g>
</g>
</g>
<defs>
<clipPath id="clip0_261_70">
<rect width="15" height="15" fill="white"/>
</clipPath>
</defs>
</svg>
