<svg width="38" height="39" viewBox="0 0 38 39" fill="none" xmlns="http://www.w3.org/2000/svg">
<g clip-path="url(#clip0_275_164)">
<path d="M29.6482 5.70007H7.98508C3.73482 5.70007 0.289307 9.32567 0.289307 13.7981V25.1933C0.289307 29.6657 3.73482 33.2913 7.98508 33.2913H29.6482C33.8984 33.2913 37.3439 29.6657 37.3439 25.1933V13.7981C37.3439 9.32567 33.8984 5.70007 29.6482 5.70007ZM24.4436 20.0501L14.311 25.1353C14.041 25.2708 13.7292 25.0637 13.7292 24.7489V14.2607C13.7292 13.9415 14.0492 13.7346 14.3198 13.8789L24.4523 19.282C24.7536 19.4426 24.7484 19.8972 24.4436 20.0501Z" fill="#FDD3D3"/>
</g>
<defs>
<clipPath id="clip0_275_164">
<rect width="37.0546" height="38.9913" fill="white" transform="translate(0.289307)"/>
</clipPath>
</defs>
</svg>
